<svg width="448" height="385" viewBox="0 0 448 385" fill="none" xmlns="http://www.w3.org/2000/svg">
<path d="M420.361 161.229C418.531 160.932 416.679 160.795 414.826 160.819H99.3053L106.185 157.619C112.91 154.436 119.028 150.104 124.265 144.819L212.745 56.339C224.398 45.215 226.356 27.32 217.385 13.939C206.944 -0.320007 186.921 -3.416 172.661 7.025C171.509 7.869 170.414 8.78899 169.385 9.77899L9.38525 169.779C-3.11874 182.269 -3.12975 202.53 9.36025 215.034C9.36825 215.042 9.37725 215.051 9.38525 215.059L169.385 375.059C181.899 387.538 202.16 387.51 214.64 374.996C215.622 374.011 216.539 372.963 217.385 371.859C226.356 358.478 224.398 340.583 212.745 329.459L124.425 240.819C119.73 236.119 114.332 232.178 108.425 229.139L98.8252 224.819H413.065C429.412 225.426 443.754 214.007 446.825 197.939C449.654 180.494 437.806 164.059 420.361 161.229Z" fill="#233568"/>
</svg>
