<svg width="40" height="40" viewBox="0 0 40 40" fill="none" xmlns="http://www.w3.org/2000/svg">
<g filter="url(#filter0_b)">
<path fill-rule="evenodd" clip-rule="evenodd" d="M20 35C28.2843 35 35 28.2843 35 20C35 11.7157 28.2843 5 20 5C11.7157 5 5 11.7157 5 20C5 28.2843 11.7157 35 20 35Z" fill="#989898" fill-opacity="0.4"/>
</g>
<path d="M23.4 15.9875L18.0375 21.3625L15.975 19.3C15.8629 19.1691 15.725 19.0629 15.57 18.9878C15.4149 18.9128 15.246 18.8707 15.0738 18.864C14.9017 18.8574 14.73 18.8864 14.5696 18.9492C14.4092 19.012 14.2635 19.1074 14.1417 19.2292C14.0199 19.351 13.9246 19.4967 13.8617 19.6571C13.7989 19.8175 13.7699 19.9892 13.7765 20.1613C13.7832 20.3335 13.8253 20.5024 13.9003 20.6575C13.9754 20.8125 14.0817 20.9504 14.2125 21.0625L17.15 24.0125C17.2668 24.1284 17.4053 24.22 17.5576 24.2822C17.7099 24.3444 17.873 24.376 18.0375 24.375C18.3654 24.3736 18.6797 24.2434 18.9125 24.0125L25.1625 17.7625C25.2797 17.6463 25.3727 17.508 25.4361 17.3557C25.4996 17.2034 25.5323 17.04 25.5323 16.875C25.5323 16.71 25.4996 16.5466 25.4361 16.3943C25.3727 16.242 25.2797 16.1037 25.1625 15.9875C24.9283 15.7547 24.6115 15.624 24.2813 15.624C23.951 15.624 23.6342 15.7547 23.4 15.9875ZM20 7.5C17.5277 7.5 15.111 8.23311 13.0554 9.60663C10.9998 10.9801 9.39761 12.9324 8.45151 15.2165C7.50542 17.5005 7.25787 20.0139 7.74019 22.4386C8.2225 24.8634 9.41301 27.0907 11.1612 28.8388C12.9093 30.587 15.1366 31.7775 17.5614 32.2598C19.9861 32.7421 22.4995 32.4946 24.7836 31.5485C27.0676 30.6024 29.0199 29.0002 30.3934 26.9446C31.7669 24.889 32.5 22.4723 32.5 20C32.5 18.3585 32.1767 16.733 31.5485 15.2165C30.9203 13.6999 29.9996 12.3219 28.8388 11.1612C27.6781 10.0004 26.3001 9.07969 24.7836 8.45151C23.267 7.82332 21.6415 7.5 20 7.5ZM20 30C18.0222 30 16.0888 29.4135 14.4443 28.3147C12.7998 27.2159 11.5181 25.6541 10.7612 23.8268C10.0043 21.9996 9.8063 19.9889 10.1922 18.0491C10.578 16.1093 11.5304 14.3275 12.9289 12.9289C14.3275 11.5304 16.1093 10.578 18.0491 10.1921C19.9889 9.8063 21.9996 10.0043 23.8268 10.7612C25.6541 11.5181 27.2159 12.7998 28.3147 14.4443C29.4135 16.0888 30 18.0222 30 20C30 22.6522 28.9464 25.1957 27.0711 27.0711C25.1957 28.9464 22.6522 30 20 30Z" fill="white"/>
<defs>
<filter id="filter0_b" x="-35.7742" y="-35.7742" width="111.548" height="111.548" filterUnits="userSpaceOnUse" color-interpolation-filters="sRGB">
<feFlood flood-opacity="0" result="BackgroundImageFix"/>
<feGaussianBlur in="BackgroundImage" stdDeviation="20.3871"/>
<feComposite in2="SourceAlpha" operator="in" result="effect1_backgroundBlur"/>
<feBlend mode="normal" in="SourceGraphic" in2="effect1_backgroundBlur" result="shape"/>
</filter>
</defs>
</svg>
