<svg width="489" height="489" viewBox="0 0 489 489" fill="none" xmlns="http://www.w3.org/2000/svg">
<g clip-path="url(#clip0)">
<path d="M177.854 269.311C177.854 263.196 172.894 258.242 166.774 258.242H128.109C121.996 258.242 117.035 263.196 117.035 269.311V307.971C117.035 314.094 121.996 319.05 128.109 319.05H166.774C172.894 319.05 177.854 314.094 177.854 307.971V269.311Z" fill="white"/>
<path d="M274.483 269.311C274.483 263.196 269.522 258.242 263.414 258.242H224.744C218.631 258.242 213.67 263.196 213.67 269.311V307.971C213.67 314.094 218.631 319.05 224.744 319.05H263.414C269.522 319.05 274.483 314.094 274.483 307.971V269.311Z" fill="white"/>
<path d="M371.117 269.311C371.117 263.196 366.156 258.242 360.043 258.242H321.378C315.258 258.242 310.298 263.196 310.298 269.311V307.971C310.298 314.094 315.258 319.05 321.378 319.05H360.043C366.156 319.05 371.117 314.094 371.117 307.971V269.311Z" fill="white"/>
<path d="M177.854 365.95C177.854 359.825 172.894 354.875 166.774 354.875H128.109C121.996 354.875 117.035 359.825 117.035 365.95V404.603C117.035 410.722 121.996 415.677 128.109 415.677H166.774C172.894 415.677 177.854 410.721 177.854 404.603V365.95Z" fill="white"/>
<path d="M274.483 365.95C274.483 359.825 269.522 354.875 263.414 354.875H224.744C218.631 354.875 213.67 359.825 213.67 365.95V404.603C213.67 410.722 218.631 415.677 224.744 415.677H263.414C269.522 415.677 274.483 410.721 274.483 404.603V365.95Z" fill="white"/>
<path d="M371.117 365.95C371.117 359.825 366.156 354.875 360.048 354.875H321.378C315.258 354.875 310.298 359.825 310.298 365.95V404.603C310.298 410.722 315.258 415.677 321.378 415.677H360.048C366.156 415.677 371.117 410.721 371.117 404.603V365.95Z" fill="white"/>
<path d="M440.254 54.354V113.404C440.254 140.094 418.602 161.602 391.916 161.602H361.423C334.735 161.602 312.796 140.094 312.796 113.404V54.142H175.356V113.404C175.356 140.094 153.418 161.602 126.734 161.602H96.2349C69.5499 161.602 47.8989 140.094 47.8989 113.404V54.354C24.5759 55.057 5.41089 74.356 5.41089 98.077V444.138C5.41089 468.305 24.9989 488.153 49.1659 488.153H438.986C463.117 488.153 482.741 468.264 482.741 444.138V98.077C482.741 74.356 463.577 55.057 440.254 54.354ZM426.091 422.588C426.091 433.032 417.623 441.505 407.175 441.505H80.1439C69.6959 441.505 61.2279 433.032 61.2279 422.588V243.835C61.2279 233.387 69.6949 224.914 80.1439 224.914H407.174C417.622 224.914 426.09 233.387 426.09 243.835L426.091 422.588Z" fill="white"/>
<path d="M96.1278 129.945H126.29C135.445 129.945 142.868 122.533 142.868 113.378V16.573C142.868 7.417 135.445 0 126.29 0H96.1278C86.9718 0 79.5498 7.417 79.5498 16.573V113.378C79.5498 122.533 86.9718 129.945 96.1278 129.945Z" fill="white"/>
<path d="M361.035 129.945H391.197C400.346 129.945 407.769 122.533 407.769 113.378V16.573C407.77 7.417 400.347 0 391.197 0H361.035C351.881 0 344.458 7.417 344.458 16.573V113.378C344.458 122.533 351.881 129.945 361.035 129.945Z" fill="white"/>
</g>
<defs>
<clipPath id="clip0">
<rect width="488.152" height="488.152" fill="white"/>
</clipPath>
</defs>
</svg>
