<svg width="16" height="16" viewBox="0 0 16 16" fill="none" xmlns="http://www.w3.org/2000/svg">
<path fill-rule="evenodd" clip-rule="evenodd" d="M10.7893 11.9955H5.21069C4.76532 11.9955 4.40272 11.6282 4.40272 11.177V7.84369H11.5973V11.177C11.5973 11.6282 11.2347 11.9955 10.7893 11.9955M10.6813 3.28539C10.6757 2.89741 10.3657 2.58334 9.98205 2.58334C9.5977 2.58334 9.287 2.89741 9.28209 3.28539H6.71791C6.713 2.89741 6.4023 2.58334 6.01795 2.58334C5.63431 2.58334 5.32431 2.89741 5.3187 3.28539H5.21069C3.99172 3.28539 3 4.29013 3 5.5251V11.177C3 12.4119 3.99172 13.4167 5.21069 13.4167H10.7893C12.0083 13.4167 13 12.4119 13 11.177V5.5251C13 4.29013 12.0083 3.28539 10.7893 3.28539H10.6813Z" fill="black"/>
<mask id="mask0" mask-type="alpha" maskUnits="userSpaceOnUse" x="3" y="2" width="10" height="12">
<path fill-rule="evenodd" clip-rule="evenodd" d="M10.7893 11.9955H5.21069C4.76532 11.9955 4.40272 11.6282 4.40272 11.177V7.84369H11.5973V11.177C11.5973 11.6282 11.2347 11.9955 10.7893 11.9955M10.6813 3.28539C10.6757 2.89741 10.3657 2.58334 9.98205 2.58334C9.5977 2.58334 9.287 2.89741 9.28209 3.28539H6.71791C6.713 2.89741 6.4023 2.58334 6.01795 2.58334C5.63431 2.58334 5.32431 2.89741 5.3187 3.28539H5.21069C3.99172 3.28539 3 4.29013 3 5.5251V11.177C3 12.4119 3.99172 13.4167 5.21069 13.4167H10.7893C12.0083 13.4167 13 12.4119 13 11.177V5.5251C13 4.29013 12.0083 3.28539 10.7893 3.28539H10.6813Z" fill="white"/>
</mask>
<g mask="url(#mask0)">
<rect x="-40" y="-40" width="96" height="96" fill="white"/>
</g>
</svg>
