<svg width="16" height="16" viewBox="0 0 16 16" fill="none" xmlns="http://www.w3.org/2000/svg">
<path d="M13.3337 5.9599C13.3267 5.89866 13.3133 5.83832 13.2937 5.7799V5.7199C13.2616 5.65136 13.2188 5.58835 13.167 5.53324V5.53324L9.16699 1.53324C9.11188 1.48138 9.04887 1.43862 8.98033 1.40657H8.91366C8.84883 1.37191 8.77917 1.34718 8.70699 1.33324H4.66699C4.13656 1.33324 3.62785 1.54395 3.25278 1.91902C2.87771 2.2941 2.66699 2.8028 2.66699 3.33324V12.6666C2.66699 13.197 2.87771 13.7057 3.25278 14.0808C3.62785 14.4559 4.13656 14.6666 4.66699 14.6666H11.3337C11.8641 14.6666 12.3728 14.4559 12.7479 14.0808C13.1229 13.7057 13.3337 13.197 13.3337 12.6666V5.9999C13.3337 5.9999 13.3337 5.9999 13.3337 5.9599ZM9.33366 3.60657L11.0603 5.33324H10.0003C9.82351 5.33324 9.65394 5.263 9.52892 5.13797C9.4039 5.01295 9.33366 4.84338 9.33366 4.66657V3.60657ZM12.0003 12.6666C12.0003 12.8434 11.9301 13.013 11.8051 13.138C11.68 13.263 11.5105 13.3332 11.3337 13.3332H4.66699C4.49018 13.3332 4.32061 13.263 4.19559 13.138C4.07056 13.013 4.00033 12.8434 4.00033 12.6666V3.33324C4.00033 3.15643 4.07056 2.98686 4.19559 2.86183C4.32061 2.73681 4.49018 2.66657 4.66699 2.66657H8.00033V4.66657C8.00033 5.197 8.21104 5.70571 8.58611 6.08078C8.96118 6.45586 9.46989 6.66657 10.0003 6.66657H12.0003V12.6666ZM8.86033 9.52657L8.66699 9.72657V7.9999C8.66699 7.82309 8.59675 7.65352 8.47173 7.5285C8.34671 7.40348 8.17714 7.33324 8.00033 7.33324C7.82351 7.33324 7.65395 7.40348 7.52892 7.5285C7.4039 7.65352 7.33366 7.82309 7.33366 7.9999V9.72657L7.14033 9.52657C7.01479 9.40104 6.84453 9.33051 6.66699 9.33051C6.48946 9.33051 6.31919 9.40104 6.19366 9.52657C6.06812 9.65211 5.9976 9.82237 5.9976 9.9999C5.9976 10.1774 6.06812 10.3477 6.19366 10.4732L7.52699 11.8066C7.59039 11.8673 7.66516 11.9148 7.74699 11.9466C7.82679 11.9818 7.91308 12.0001 8.00033 12.0001C8.08757 12.0001 8.17386 11.9818 8.25366 11.9466C8.33549 11.9148 8.41026 11.8673 8.47366 11.8066L9.80699 10.4732C9.93253 10.3477 10.0031 10.1774 10.0031 9.9999C10.0031 9.82237 9.93253 9.65211 9.80699 9.52657C9.68146 9.40104 9.51119 9.33051 9.33366 9.33051C9.15612 9.33051 8.98586 9.40104 8.86033 9.52657V9.52657Z" fill="white"/>
</svg>
