<svg width="40" height="40" viewBox="0 0 40 40" fill="none" xmlns="http://www.w3.org/2000/svg">
<path d="M33.3333 14.9C33.316 14.7469 33.2825 14.5961 33.2333 14.45V14.3C33.1532 14.1287 33.0463 13.9711 32.9167 13.8334L22.9167 3.83337C22.7789 3.70373 22.6214 3.59684 22.45 3.51671H22.2833C22.1213 3.43005 21.9471 3.36824 21.7667 3.33337H11.6667C10.3406 3.33337 9.06882 3.86016 8.13114 4.79784C7.19346 5.73552 6.66667 7.00729 6.66667 8.33337V31.6667C6.66667 32.9928 7.19346 34.2646 8.13114 35.2022C9.06882 36.1399 10.3406 36.6667 11.6667 36.6667H28.3333C29.6594 36.6667 30.9312 36.1399 31.8689 35.2022C32.8066 34.2646 33.3333 32.9928 33.3333 31.6667V15C33.3333 15 33.3333 15 33.3333 14.9ZM23.3333 9.01671L27.65 13.3334H25C24.558 13.3334 24.1341 13.1578 23.8215 12.8452C23.5089 12.5327 23.3333 12.1087 23.3333 11.6667V9.01671ZM30 31.6667C30 32.1087 29.8244 32.5327 29.5118 32.8452C29.1993 33.1578 28.7754 33.3334 28.3333 33.3334H11.6667C11.2246 33.3334 10.8007 33.1578 10.4882 32.8452C10.1756 32.5327 10 32.1087 10 31.6667V8.33337C10 7.89135 10.1756 7.46742 10.4882 7.15486C10.8007 6.8423 11.2246 6.66671 11.6667 6.66671H20V11.6667C20 12.9928 20.5268 14.2646 21.4645 15.2022C22.4022 16.1399 23.6739 16.6667 25 16.6667H30V31.6667ZM22.15 23.8167L21.6667 24.3167V20C21.6667 19.558 21.4911 19.1341 21.1785 18.8215C20.866 18.509 20.442 18.3334 20 18.3334C19.558 18.3334 19.1341 18.509 18.8215 18.8215C18.5089 19.1341 18.3333 19.558 18.3333 20V24.3167L17.85 23.8167C17.5362 23.5029 17.1105 23.3266 16.6667 23.3266C16.2228 23.3266 15.7972 23.5029 15.4833 23.8167C15.1695 24.1305 14.9932 24.5562 14.9932 25C14.9932 25.4439 15.1695 25.8695 15.4833 26.1834L18.8167 29.5167C18.9752 29.6684 19.1621 29.7874 19.3667 29.8667C19.5662 29.9549 19.7819 30.0004 20 30.0004C20.2181 30.0004 20.4338 29.9549 20.6333 29.8667C20.8379 29.7874 21.0248 29.6684 21.1833 29.5167L24.5167 26.1834C24.8305 25.8695 25.0068 25.4439 25.0068 25C25.0068 24.5562 24.8305 24.1305 24.5167 23.8167C24.2028 23.5029 23.7772 23.3266 23.3333 23.3266C22.8895 23.3266 22.4638 23.5029 22.15 23.8167Z" fill="#56B597"/>
</svg>
