<svg width="16" height="16" viewBox="0 0 16 16" fill="none" xmlns="http://www.w3.org/2000/svg">
<path fill-rule="evenodd" clip-rule="evenodd" d="M8 8.04033C7.3128 8.04033 6.75571 7.48325 6.75571 6.79604C6.75571 6.10884 7.3128 5.55253 8 5.55253C8.6872 5.55253 9.24429 6.10884 9.24429 6.79604C9.24429 7.48325 8.6872 8.04033 8 8.04033ZM8 2.73749C5.67893 2.73827 3.7303 4.48822 3.79575 6.93785C3.82847 8.14318 4.39802 9.32748 5.14288 10.5274C5.69919 11.4265 6.55547 12.328 7.1858 12.9341C7.64082 13.372 8.35918 13.372 8.8142 12.9341C9.44453 12.328 10.3008 11.4265 10.8579 10.5274C11.602 9.32748 12.1715 8.14318 12.2043 6.93785C12.2697 4.48822 10.3211 2.73827 8 2.73749Z" fill="black"/>
<mask id="mask0" mask-type="alpha" maskUnits="userSpaceOnUse" x="3" y="2" width="10" height="12">
<path fill-rule="evenodd" clip-rule="evenodd" d="M8 8.04033C7.3128 8.04033 6.75571 7.48325 6.75571 6.79604C6.75571 6.10884 7.3128 5.55253 8 5.55253C8.6872 5.55253 9.24429 6.10884 9.24429 6.79604C9.24429 7.48325 8.6872 8.04033 8 8.04033ZM8 2.73749C5.67893 2.73827 3.7303 4.48822 3.79575 6.93785C3.82847 8.14318 4.39802 9.32748 5.14288 10.5274C5.69919 11.4265 6.55547 12.328 7.1858 12.9341C7.64082 13.372 8.35918 13.372 8.8142 12.9341C9.44453 12.328 10.3008 11.4265 10.8579 10.5274C11.602 9.32748 12.1715 8.14318 12.2043 6.93785C12.2697 4.48822 10.3211 2.73827 8 2.73749Z" fill="white"/>
</mask>
<g mask="url(#mask0)">
<rect x="-40" y="-40" width="96" height="96" fill="white"/>
</g>
</svg>
