<svg width="512" height="512" viewBox="0 0 512 512" fill="none" xmlns="http://www.w3.org/2000/svg">
<g clip-path="url(#clip0)">
<path d="M256 0C150.144 0 64 86.7413 64 193.387C64 344.917 237.952 501.376 245.355 507.947C248.405 510.656 252.203 512 256 512C259.797 512 263.595 510.656 266.645 507.968C274.048 501.376 448 344.917 448 193.387C448 86.7413 361.856 0 256 0ZM256 298.667C197.184 298.667 149.333 250.816 149.333 192C149.333 133.184 197.184 85.3333 256 85.3333C314.816 85.3333 362.667 133.184 362.667 192C362.667 250.816 314.816 298.667 256 298.667Z" fill="white"/>
</g>
<defs>
<clipPath id="clip0">
<rect width="512" height="512" fill="white"/>
</clipPath>
</defs>
</svg>
