<svg width="327" height="83" viewBox="0 0 327 83" fill="none" xmlns="http://www.w3.org/2000/svg">
<g clip-path="url(#clip0)">
<path d="M63.1231 42.4261C62.9459 42.2938 62.7688 42.1615 62.6359 42.0292C55.4598 36.7811 48.328 31.577 41.1962 26.3289C38.9813 24.6971 39.6458 24.5648 36.3235 25.3587C35.7919 25.491 35.3047 25.7997 35.0389 26.2407C34.1529 27.5638 33.267 28.8427 32.3368 30.1658C31.4951 31.4888 29.6789 31.8857 28.35 31.0478C28.3057 31.0037 28.2614 31.0037 28.2171 30.9596C27.5084 30.5186 26.8439 30.0335 26.1352 29.5924C24.4519 28.4899 24.0975 26.814 25.2493 25.1822C26.6668 23.0653 28.1286 20.9925 29.5461 18.8757C29.9447 18.3023 30.432 17.8613 31.0522 17.5526L34.8617 15.7444C34.9946 15.6562 35.2161 15.6562 35.2604 15.4798C33.8872 15.0388 32.3811 15.127 31.0079 15.7003C27.0211 17.5526 23.0344 19.4049 19.0477 21.2572C18.3832 21.5659 17.6302 21.7423 16.9214 21.7423C11.4729 21.7423 6.02438 21.7423 0.57586 21.7423H0C0 28.1371 0 34.6201 0 41.059C3.01219 41.059 6.06868 41.059 9.08087 41.059C9.30236 41.059 9.47954 40.9708 9.61244 40.7944C10.5427 40.1328 11.5615 39.9123 12.536 40.4856C13.8649 41.2795 15.2824 41.9851 16.1241 43.4405C16.3899 43.0877 16.6556 42.7789 16.9214 42.4702C17.9403 41.2354 19.7564 41.0149 20.9967 42.0292C21.041 42.0292 21.041 42.0733 21.0853 42.0733C21.7055 42.6025 22.3257 43.0877 22.9458 43.6169C23.2559 43.8374 23.5217 44.1902 23.6989 44.543C23.8318 44.8517 23.9203 44.8958 24.2304 44.7194C25.2936 43.9697 26.7554 44.0579 27.6856 44.94C28.2614 45.4251 28.8373 45.9102 29.4575 46.3512C30.2548 46.9245 30.6978 47.8948 30.6092 48.865C30.6092 49.1296 30.6535 49.1737 30.9193 49.2178C31.4951 49.2619 32.0267 49.5266 32.4697 49.8794C33.0012 50.3204 33.5771 50.7614 34.1529 51.1583C35.2604 51.864 35.7476 53.2311 35.3047 54.466C35.2161 54.6424 35.3047 54.8188 35.4818 54.907C36.1906 55.348 36.8551 55.8331 37.5638 56.2742C38.6712 57.0239 40.1773 56.9357 41.1962 56.0978C41.5948 55.789 41.9935 55.5244 42.3922 55.2157C43.2338 54.5542 43.2338 54.1132 42.3922 53.4957C41.2847 52.6578 40.133 51.864 39.0256 51.026C38.7155 50.8496 38.5826 50.4527 38.7598 50.0999C38.7598 50.0558 38.8041 50.0558 38.8041 50.0117C39.0256 49.703 39.4243 49.6589 39.7344 49.8794L39.7787 49.9235C39.9115 50.0117 40.0444 50.0999 40.1773 50.1881C41.6391 51.2024 43.1009 52.2609 44.5627 53.2752C45.3158 53.8927 46.3789 53.9368 47.2205 53.4075C48.0179 52.8342 48.7266 52.2609 49.4354 51.5994C49.8341 51.2906 49.9226 50.7614 49.6126 50.3645C49.5683 50.3204 49.5683 50.3204 49.524 50.2763C49.3468 50.0558 49.1253 49.8794 48.9038 49.7471L42.5694 45.3369C42.0821 44.9841 41.9935 44.6312 42.215 44.2784C42.4365 43.9256 42.8794 43.9256 43.3224 44.2343C43.4553 44.3225 43.5882 44.4107 43.7211 44.4989C46.1131 46.1748 48.5051 47.8066 50.8529 49.4825C51.6502 50.0999 52.7577 50.1881 53.6436 49.6589C54.4409 49.0855 55.2383 48.5122 56.0356 47.9389C56.4786 47.6302 56.6115 47.0568 56.3014 46.6158C56.1685 46.3953 55.947 46.1748 55.7255 46.0425C52.359 43.8374 49.1696 41.4118 45.8916 39.0744C45.4044 38.7216 45.2715 38.3246 45.5373 37.9718C45.803 37.619 46.2017 37.619 46.6447 37.9718C47.7964 38.7657 48.9038 39.6036 50.0555 40.3974C52.7134 42.2938 55.3712 44.2343 58.1176 45.9984C58.9592 46.5276 59.8895 46.7481 60.7311 46.1748C61.5727 45.6015 62.3701 44.94 63.0788 44.2343C63.5218 43.8374 63.5661 43.1318 63.1674 42.6466C63.256 42.5143 63.2117 42.4702 63.1231 42.4261Z" fill="url(#paint0_linear)"/>
<path d="M27.2865 15.4798C27.2865 16.0531 27.2865 16.0531 27.8623 15.8326C29.0584 15.3034 30.1658 14.5978 31.4061 14.2008C32.8236 13.7598 34.374 13.5393 35.5257 14.5096C36.4117 15.2152 36.9875 15.1711 37.7849 14.6419C37.8735 14.5978 37.962 14.5537 38.0506 14.5537C39.3353 13.8921 40.8413 13.9803 42.0817 14.686C43.4549 15.4357 44.8281 16.1413 46.2456 16.847C46.7771 17.1557 46.8214 17.1557 46.8214 16.5382C46.8214 11.246 46.8214 5.95376 46.8214 0.70562C46.8214 0.2646 46.8214 0.617416 46.8214 0.132294C43.7649 0.132294 40.0883 0.132294 37.0318 0.132294C33.9753 0.132294 30.2987 0.132294 27.2422 0.132294V0.70562C27.2865 5.64505 27.2865 10.5845 27.2865 15.4798Z" fill="url(#paint1_linear)"/>
<path d="M46.423 54.7747C46.0687 54.8188 45.7143 54.7747 45.4042 54.6424C45.1827 54.5101 44.8726 54.5542 44.6955 54.7747C43.588 55.6567 42.4806 56.4947 41.4175 57.3326C40.753 57.8177 39.9114 58.0383 39.114 57.8618C38.4053 57.7295 37.7408 57.4649 37.1207 57.0239C36.4119 56.5829 35.7475 56.0978 35.083 55.6126C34.8172 55.4362 34.6401 55.4362 34.4629 55.7008C34.0642 56.2742 33.6212 56.8475 33.134 57.4208C32.248 58.4793 31.052 58.6116 29.9446 57.7736C29.7231 57.5972 29.5016 57.4208 29.3244 57.2444C28.7043 56.7152 28.0841 56.1419 27.4196 55.5685C27.3311 55.7008 27.3311 55.8773 27.3311 56.0537C27.3311 59.8023 27.3311 63.5951 27.3311 67.3879V67.9612C33.2225 67.9612 39.7342 67.9612 45.6257 67.9612H45.8029H46.866C46.866 67.6966 46.866 67.873 46.866 67.5643C46.866 63.4187 46.866 59.2731 46.866 55.1275C46.8217 54.8188 46.6888 54.7306 46.423 54.7747Z" fill="url(#paint2_linear)"/>
<path d="M29.369 48.6445C29.369 48.1594 29.1476 47.7625 28.7932 47.4538C28.173 46.9245 27.5529 46.4394 26.9327 45.9102C26.3126 45.3369 25.3823 45.381 24.8065 45.9984C24.7622 46.0425 24.7622 46.0866 24.7179 46.0866C23.7433 47.2332 22.8131 48.3799 21.9272 49.5707C21.3956 50.1881 21.4842 51.1583 22.1043 51.6875C22.1486 51.6875 22.1486 51.7317 22.1929 51.7317C22.7245 52.2168 23.3004 52.6578 23.8762 53.0988C24.8508 53.8927 25.6481 53.8044 26.4454 52.8342C27.2428 51.864 28.0401 50.6732 28.9261 49.703C29.1919 49.4383 29.369 49.0414 29.369 48.6445Z" fill="url(#paint3_linear)"/>
<path d="M22.1926 44.6312C21.5281 44.102 20.908 43.5728 20.2435 43.0436C19.9777 42.8231 19.6677 42.6908 19.3133 42.7349C18.8703 42.6908 18.4273 42.9113 18.1616 43.22C17.4528 44.0579 16.7441 44.8959 16.1239 45.7338C15.5923 46.3953 15.7252 47.3215 16.3897 47.8066C16.3897 47.8066 16.434 47.8066 16.434 47.8507C17.0541 48.3799 17.6743 48.865 18.2944 49.3943C18.8703 49.9676 19.8448 49.9235 20.3764 49.3061C20.4207 49.262 20.4207 49.262 20.465 49.2179C21.1737 48.424 21.8382 47.5861 22.5027 46.7481C22.9456 46.0866 22.857 45.1605 22.1926 44.6312Z" fill="url(#paint4_linear)"/>
<path d="M28.4382 55.2157C29.0141 55.6567 29.5899 56.0978 30.2101 56.5829C30.8303 57.1562 31.8048 57.1121 32.4249 56.4947C32.4692 56.4506 32.5578 56.3624 32.6021 56.2742C33.0451 55.7008 33.4881 55.0834 33.931 54.5101C34.1525 54.2455 34.2411 53.8927 34.2411 53.5399C34.2854 53.1429 34.1082 52.746 33.7981 52.4814C33.0894 51.9081 32.3806 51.3347 31.6276 50.8055C31.0517 50.4086 30.2544 50.4968 29.7671 51.026C29.2356 51.6876 28.704 52.3491 28.1724 53.0547C27.6409 53.7163 27.7295 54.6424 28.3939 55.1716C28.3939 55.1716 28.4382 55.1716 28.4382 55.2157Z" fill="url(#paint5_linear)"/>
<path d="M14.3077 43.2641C13.6432 42.779 12.9788 42.3379 12.3143 41.8528C12.0928 41.6764 11.7828 41.5441 11.4727 41.5882C10.6753 41.6323 10.0109 42.1174 9.74511 42.8672C9.52363 43.5287 9.78941 44.2784 10.4096 44.6312C11.074 45.0723 11.6942 45.5574 12.3586 45.9984C13.156 46.5276 14.0862 46.3071 14.7064 45.4251C15.1936 44.7194 15.0164 43.7492 14.3077 43.2641Z" fill="url(#paint6_linear)"/>
<path d="M74.2413 40.5298C74.2413 37.4426 74.2413 34.3996 74.2413 31.3124C74.2413 28.2253 74.2413 25.1822 74.2413 22.0951C74.2413 21.6982 74.2413 22.1833 74.2413 21.5659H73.7097C72.0707 21.5659 70.4318 21.5659 68.7928 21.5659H63.8758H53.7318C53.2445 21.5659 52.8016 21.4777 52.3586 21.2572C48.9477 19.449 45.4483 17.6849 42.0817 15.7885C40.8414 15.0388 39.2467 14.9506 37.9621 15.6562L31.6276 18.6551C31.3176 18.7875 31.0518 19.008 30.8303 19.2726C29.2799 21.5218 27.7295 23.771 26.2234 26.0643C25.7361 26.7258 25.869 27.6961 26.5335 28.1812C26.5778 28.2253 26.6664 28.2694 26.7107 28.3135C27.4194 28.7986 28.1282 29.2396 28.8369 29.6807C29.9001 30.3422 30.6974 30.2099 31.4062 29.1955C32.2921 27.9166 33.178 26.5935 34.1083 25.3146C34.5069 24.6971 35.1271 24.2561 35.8358 24.1238C36.5003 23.9915 37.1648 23.8151 37.8292 23.6828C38.848 23.4623 39.9112 23.6828 40.7528 24.3002C48.239 29.813 55.7252 35.3257 63.2557 40.8385C63.4771 41.0149 63.7429 41.1031 64.0087 41.1031H68.7485H68.9257C70.5204 41.1031 72.1593 41.1031 73.754 41.1031H74.2856C74.2413 40.7503 74.2413 40.9708 74.2413 40.5298Z" fill="url(#paint7_linear)"/>
<path d="M113.887 11.0255H99.9336V18.4346H112.647V28.1812H99.9336V45.6015H88.3721V1.23485H113.887V11.0255Z" fill="#233568"/>
<path d="M144.807 12.6132C143.655 11.687 142.415 10.8932 141.042 10.364C139.89 9.87884 138.65 9.65833 137.365 9.61423C136.08 9.57013 134.752 9.92294 133.688 10.6727C132.802 11.2901 132.271 12.3486 132.271 13.4511C132.227 14.1567 132.492 14.8624 132.98 15.3916C133.511 15.9649 134.131 16.4059 134.84 16.7147C135.682 17.1116 136.568 17.4203 137.454 17.6849C138.428 17.9495 139.358 18.2582 140.333 18.5669C144.098 19.8018 146.889 21.5218 148.661 23.5946C150.433 25.7115 151.274 28.4017 151.274 31.7975C151.319 33.9144 150.92 36.0313 150.123 37.9718C149.37 39.78 148.218 41.4118 146.756 42.6907C145.161 44.0579 143.301 45.1164 141.307 45.7779C138.96 46.5276 136.479 46.8804 133.999 46.8804C128.373 46.8804 122.88 45.1163 118.317 41.8969L123.279 32.5914C124.829 34.0026 126.557 35.1493 128.417 35.9872C130.012 36.6929 131.695 37.0898 133.423 37.0898C135.327 37.0898 136.701 36.6488 137.631 35.8108C138.96 34.6642 139.403 32.7678 138.65 31.136C138.384 30.6068 137.985 30.1217 137.454 29.7688C136.789 29.2837 136.08 28.8868 135.283 28.6222C134.397 28.2694 133.334 27.8725 132.049 27.4314C130.543 26.9463 129.082 26.4171 127.664 25.8879C126.291 25.3586 124.962 24.5648 123.81 23.6387C122.658 22.6684 121.728 21.4336 121.108 20.0664C120.355 18.3464 120.001 16.4941 120.089 14.6419C120.045 12.6132 120.444 10.5845 121.197 8.68809C121.905 6.96811 122.924 5.38044 124.253 4.10148C125.626 2.77842 127.265 1.76407 129.082 1.14664C131.119 0.396908 133.29 0.0440916 135.505 0.0881936C137.852 0.0881936 140.156 0.396908 142.415 1.01434C144.807 1.63176 147.155 2.5138 149.325 3.70456L144.807 12.6132Z" fill="#233568"/>
<path d="M181.219 12.6132C180.067 11.687 178.827 10.8932 177.454 10.364C176.302 9.87884 175.062 9.65833 173.777 9.61423C172.493 9.57013 171.164 9.92295 170.101 10.6727C169.215 11.2901 168.683 12.3486 168.683 13.4511C168.639 14.1567 168.905 14.8624 169.392 15.3916C169.923 15.9649 170.544 16.4059 171.252 16.7147C172.094 17.1116 172.98 17.4203 173.866 17.6849C174.84 17.9495 175.771 18.2582 176.745 18.5669C180.51 19.8018 183.301 21.5218 185.073 23.5946C186.845 25.7115 187.686 28.4017 187.686 31.7975C187.731 33.9144 187.332 36.0313 186.535 37.9718C185.782 39.78 184.63 41.4118 183.168 42.6907C181.573 44.0579 179.713 45.1164 177.72 45.7338C175.372 46.4835 172.891 46.8363 170.411 46.8363C164.785 46.8363 159.336 45.0723 154.729 41.8528L159.691 32.5473C161.197 33.9585 162.969 35.1052 164.829 35.9431C166.424 36.6488 168.107 37.0457 169.835 37.0457C171.74 37.0457 173.113 36.6047 174.043 35.7667C175.372 34.6201 175.815 32.7237 175.062 31.0919C174.796 30.5627 174.397 30.0776 173.866 29.7248C173.201 29.2396 172.493 28.8427 171.695 28.5781C170.809 28.2253 169.746 27.8284 168.462 27.3873C166.955 26.9022 165.494 26.373 164.076 25.8438C162.703 25.3145 161.418 24.5648 160.267 23.5946C159.115 22.6243 158.185 21.3895 157.565 20.0223C156.811 18.3023 156.457 16.45 156.546 14.5978C156.501 12.5691 156.9 10.5404 157.653 8.64399C158.362 6.92401 159.381 5.33634 160.71 4.05738C162.083 2.73432 163.722 1.71997 165.538 1.10254C167.576 0.35281 169.746 -6.31437e-06 171.961 0.0440957C174.309 0.0440957 176.612 0.35281 178.871 0.970238C181.263 1.58767 183.611 2.46971 185.782 3.66046L181.219 12.6132Z" fill="#233568"/>
<path d="M212.138 11.0255V45.6015H200.577V11.0255H191.053V1.23485H221.662V11.0255H212.138Z" fill="#233568"/>
<path d="M255.195 23.33C255.195 23.0212 255.195 23.33 255.195 22.8889C261.131 22.8889 267.51 22.8889 273.445 22.8889H273.888C273.933 26.9022 273.578 31.1801 271.939 34.9288C269.237 41.2354 264.453 45.0722 257.764 46.6599C254.974 47.2773 252.139 47.4979 249.304 47.2773C243.191 46.8363 237.919 44.543 233.844 39.8682C231.363 37.0016 229.636 33.5616 228.883 29.857C228.307 27.1668 228.13 24.3884 228.351 21.61C228.75 16.4941 230.344 11.8193 233.711 7.80605C236.767 4.14558 241.02 1.58766 245.76 0.661518C247.354 0.308702 248.993 0.132294 250.588 0.132294H252.537C255.549 0.132294 258.562 0.70562 261.397 1.80817C265.118 3.30764 268.351 5.86556 270.566 9.17321C270.743 9.43782 270.788 9.57013 270.522 9.83474C269.193 10.8491 267.864 11.9075 266.579 12.966C266.446 13.0542 266.579 12.966 266.358 13.1424C264.896 10.805 262.77 8.51168 260.333 7.10041C258.34 5.95376 256.081 5.29223 253.778 5.11582C250.234 4.80711 246.823 5.15992 243.634 6.7917C239.115 9.085 236.28 12.8337 234.907 17.6849C234.154 20.4633 233.888 23.4182 234.154 26.2848C234.553 30.8273 236.325 34.7965 239.691 37.9718C242.172 40.3092 245.361 41.8087 248.772 42.2497C251.961 42.6907 255.106 42.5584 258.119 41.3236C263.39 39.2067 266.624 35.2816 267.687 29.6806C267.82 29.0191 267.908 28.4017 267.953 27.7402H267.598C267.288 27.7402 266.978 27.7402 266.624 27.7402C262.947 27.7402 258.694 27.7402 255.062 27.7402" fill="#233568"/>
<path d="M326.956 21.61C326.956 18.6552 326.247 15.7885 324.874 13.1865C323.501 10.4522 321.64 7.98246 319.292 5.95377C317.033 3.96918 314.375 2.42561 311.585 1.36716C309.06 0.441016 306.358 -4.448e-06 303.611 0.0881996C303.08 0.0881996 302.548 0.0440976 302.016 0.132302C300.333 0.176404 298.694 0.396914 297.1 0.793832C287.531 3.04304 279.469 11.0696 278.716 22.1392C278.495 25.2705 278.893 28.4458 279.957 31.4006C283.855 42.5143 295.859 49.3061 307.819 46.8363C313.445 45.7338 318.495 42.6466 322.039 38.1923C324.475 35.1493 326.114 31.5329 326.69 27.6961C326.823 26.9904 326.911 26.2848 327 25.5792V21.9628C326.911 21.8305 326.956 21.7423 326.956 21.61ZM321.33 24.3443C321.064 34.5319 312.382 42.4261 302.77 42.2497C293.201 42.4702 283.943 34.0909 284.342 23.0654C284.652 13.7598 292.36 4.76301 303.7 5.20403C313.046 5.55685 321.596 13.3188 321.33 24.3443Z" fill="#233568"/>
<path d="M91.6948 62.3602H88.8155V64.3448H91.6062V65.4915H88.8155V69.4166H87.5752V61.2136H91.6948V62.3602Z" fill="#233568"/>
<path d="M92.7577 65.271C92.7577 64.1243 93.2006 63.0659 94.0423 62.2721C94.8396 61.4782 95.947 60.9931 97.0988 61.0372C99.4465 61.0372 101.396 62.9777 101.396 65.3151C101.44 66.4618 100.953 67.5643 100.111 68.3581C98.472 69.9458 95.8584 70.034 94.1752 68.4904C93.2006 67.6966 92.7134 66.5058 92.7577 65.271ZM93.998 65.271C93.998 66.9469 95.3269 68.3581 97.0545 68.4022C97.8961 68.4022 98.6492 68.0935 99.225 67.5202C100.421 66.2853 100.421 64.3449 99.225 63.11C98.029 61.9192 96.0799 61.9192 94.8839 63.11C94.308 63.6833 93.9537 64.4772 93.998 65.271Z" fill="#233568"/>
<path d="M105.737 65.9325L108.306 69.4166H106.756L104.408 66.0648H104.187V69.4166H102.946V61.2136H104.408C105.516 61.2136 106.269 61.4341 106.756 61.831C107.287 62.272 107.597 62.9336 107.553 63.6392C107.553 64.1684 107.376 64.6977 107.066 65.1387C106.712 65.5356 106.269 65.8002 105.737 65.9325ZM104.187 64.9623H104.585C105.781 64.9623 106.357 64.5212 106.357 63.5951C106.357 62.7572 105.781 62.3161 104.63 62.3161H104.187V64.9623Z" fill="#233568"/>
<path d="M110.786 61.2136V66.153C110.742 66.6823 110.875 67.2115 111.141 67.6966C111.761 68.4904 112.957 68.6227 113.754 68.0053C113.887 67.9171 113.976 67.8289 114.064 67.6966C114.33 67.2115 114.463 66.6823 114.419 66.153V61.2136H115.659V66.5059C115.703 67.2997 115.393 68.0494 114.862 68.6668C113.621 69.9017 111.628 69.9017 110.388 68.711C110.388 68.711 110.344 68.711 110.344 68.6668C109.812 68.0935 109.502 67.2997 109.546 66.5059V61.2136H110.786ZM114.507 59.0085L112.337 60.4639L111.761 59.9788L113.489 58.2588L114.507 59.0085Z" fill="#233568"/>
<path d="M117.343 69.4166L119.07 60.5962L121.905 66.991L124.829 60.5962L126.379 69.4166H125.095L124.297 64.4771L121.861 69.8135L119.469 64.4771L118.583 69.4607H117.343V69.4166Z" fill="#233568"/>
<path d="M131.562 69.4166V61.2136H133.289C133.954 61.1695 134.618 61.2577 135.238 61.4782C135.77 61.6546 136.257 61.9192 136.656 62.3162C138.339 63.9479 138.383 66.6382 136.7 68.314C136.656 68.3581 136.611 68.4022 136.567 68.4022C136.168 68.7551 135.681 69.0638 135.15 69.1961C134.529 69.3725 133.865 69.4607 133.201 69.4166H131.562ZM132.802 68.2699H133.333C133.821 68.2699 134.264 68.2258 134.707 68.0935C135.903 67.6966 136.656 66.55 136.656 65.3151C136.7 64.4772 136.346 63.6833 135.77 63.11C135.105 62.5808 134.219 62.272 133.333 62.3603H132.758L132.802 68.2699Z" fill="#233568"/>
<path d="M144.053 62.3602H140.731V64.3448H143.965V65.4915H140.775V68.2258H144.098V69.3725H139.535V61.1695H144.098V62.3602H144.053Z" fill="#233568"/>
<path d="M153.754 62.4485L152.735 63.0659C152.603 62.8013 152.425 62.5808 152.204 62.4485C151.717 62.1838 151.096 62.2279 150.654 62.5808C150.432 62.7572 150.299 63.0218 150.299 63.2864C150.299 63.6833 150.609 63.992 151.185 64.2566L152.027 64.6095C152.603 64.7859 153.09 65.1387 153.488 65.5797C153.799 65.9766 153.976 66.5058 153.931 66.991C153.931 67.6966 153.666 68.3581 153.178 68.8433C152.691 69.3284 151.982 69.593 151.274 69.593C150.609 69.593 149.989 69.3725 149.502 68.9756C149.015 68.4904 148.704 67.873 148.66 67.2115L149.945 66.9469C149.945 67.2997 150.078 67.6525 150.255 67.9612C150.521 68.314 150.919 68.5345 151.362 68.4904C151.717 68.4904 152.071 68.3581 152.337 68.0935C152.603 67.8289 152.735 67.4761 152.735 67.1233C152.735 66.991 152.735 66.8146 152.647 66.6822C152.603 66.5499 152.514 66.4176 152.425 66.3294C152.337 66.1971 152.204 66.1089 152.071 66.0207C151.894 65.9325 151.717 65.8002 151.539 65.7561L150.742 65.4033C149.59 64.9182 149.059 64.2125 149.059 63.3305C149.059 62.7131 149.325 62.1838 149.768 61.7869C150.255 61.3459 150.875 61.1254 151.539 61.1695C152.47 61.0372 153.311 61.5664 153.754 62.4485Z" fill="#233568"/>
<path d="M160.222 67.432H156.678L155.748 69.4166H154.419L158.494 60.6844L162.437 69.4166H161.063L160.222 67.432ZM159.735 66.2853L158.494 63.5069L157.21 66.2853H159.735Z" fill="#233568"/>
<path d="M164.43 61.2136V66.153C164.386 66.6823 164.519 67.2115 164.784 67.6966C165.405 68.4904 166.601 68.6227 167.398 68.0053C167.531 67.9171 167.619 67.7848 167.708 67.6966C167.974 67.2115 168.107 66.6823 168.062 66.153V61.2136H169.303V66.5059C169.347 67.2997 169.037 68.0494 168.505 68.6668C167.265 69.9017 165.272 69.9017 164.031 68.711C164.031 68.711 164.031 68.711 163.987 68.6668C163.456 68.0935 163.145 67.2997 163.19 66.5059V61.2136H164.43ZM168.107 59.0085L165.936 60.4639L165.36 59.9788L167.088 58.2588L168.107 59.0085Z" fill="#233568"/>
<path d="M171.252 69.4166V61.2136H172.98C173.644 61.1695 174.308 61.2577 174.929 61.4782C175.46 61.6546 175.947 61.9192 176.346 62.3162C178.029 63.9479 178.074 66.6382 176.39 68.314C176.346 68.3581 176.302 68.4022 176.258 68.4022C175.859 68.7551 175.372 69.0638 174.84 69.1961C174.22 69.3725 173.555 69.4607 172.891 69.4166H171.252ZM172.492 68.2699H173.068C173.555 68.2699 173.998 68.2258 174.441 68.0935C175.637 67.6966 176.39 66.55 176.39 65.3151C176.435 64.4772 176.125 63.6833 175.504 63.11C174.84 62.5808 173.954 62.272 173.068 62.3603H172.492V68.2699Z" fill="#233568"/>
<path d="M183.788 62.3602H180.466V64.3448H183.655V65.4915H180.466V68.2258H183.788V69.3725H179.226V61.1695H183.788V62.3602Z" fill="#233568"/>
<path d="M193.357 62.3602H190.034V64.3448H193.268V65.4915H190.034V68.2258H193.357V69.3725H188.794V61.1695H193.357V62.3602Z" fill="#233568"/>
<path d="M203.057 62.4485L202.039 63.0659C201.906 62.8013 201.728 62.5808 201.507 62.4485C201.02 62.1838 200.4 62.2279 199.957 62.5808C199.735 62.7572 199.602 63.0218 199.602 63.2864C199.602 63.6833 199.912 63.992 200.488 64.2566L201.33 64.6095C201.906 64.83 202.393 65.1387 202.792 65.5797C203.102 65.9766 203.279 66.5058 203.235 66.991C203.235 67.6966 202.969 68.3581 202.482 68.8432C201.994 69.3284 201.286 69.593 200.577 69.593C199.912 69.6371 199.292 69.3725 198.805 68.9755C198.318 68.4904 198.008 67.873 197.919 67.2115L199.204 66.9469C199.204 67.2997 199.336 67.6525 199.514 67.9612C199.779 68.314 200.178 68.5345 200.621 68.4904C200.975 68.4904 201.33 68.3581 201.596 68.0935C201.861 67.8289 202.039 67.4761 202.039 67.0792C202.039 66.9469 202.039 66.7705 201.994 66.6381C201.95 66.5058 201.861 66.3735 201.773 66.2853C201.684 66.153 201.551 66.0648 201.418 65.9766C201.241 65.8884 201.064 65.7561 200.887 65.712L200.09 65.3592C198.982 64.8741 198.406 64.1684 198.406 63.2864C198.406 62.669 198.672 62.1397 199.115 61.7428C199.602 61.3018 200.222 61.0813 200.887 61.1254C201.773 61.0372 202.614 61.5664 203.057 62.4485Z" fill="#233568"/>
<path d="M209.303 62.3602H205.981V64.3448H209.215V65.4915H205.981V68.2258H209.303V69.3725H204.785V61.1695H209.348L209.303 62.3602Z" fill="#233568"/>
<path d="M215.195 65.1387H218.606V65.4033C218.606 65.9766 218.561 66.5058 218.384 67.0351C218.251 67.4761 217.985 67.9171 217.675 68.2699C216.922 69.1079 215.859 69.593 214.752 69.5489C213.644 69.5489 212.537 69.1078 211.784 68.314C210.145 66.594 210.189 63.9038 211.917 62.2279C213.201 61.0372 215.062 60.6844 216.656 61.39C217.277 61.6987 217.808 62.1397 218.251 62.669L217.365 63.5069C216.834 62.669 215.903 62.1838 214.885 62.1397C214.043 62.0956 213.246 62.4484 212.67 63.0218C212.094 63.5951 211.784 64.3889 211.784 65.2269C211.784 66.9028 213.113 68.2699 214.796 68.314C215.416 68.314 215.992 68.0935 216.435 67.6966C216.878 67.3438 217.188 66.7704 217.277 66.1971H215.239V65.1387H215.195Z" fill="#233568"/>
<path d="M221.441 61.2136V66.153C221.396 66.6822 221.529 67.2115 221.795 67.6966C222.415 68.4904 223.611 68.6227 224.409 68.0053C224.542 67.9171 224.63 67.8289 224.719 67.6966C224.985 67.2115 225.117 66.6822 225.073 66.153V61.2136H226.313V66.5058C226.358 67.2997 226.048 68.0494 225.516 68.6668C224.276 69.9017 222.282 69.9017 221.042 68.7109C221.042 68.7109 220.998 68.7109 220.998 68.6668C220.466 68.0935 220.156 67.2997 220.2 66.5058V61.2136H221.441Z" fill="#233568"/>
<path d="M231.053 65.9325L233.622 69.4166H232.116L229.768 66.0648H229.547V69.4166H228.307V61.2136H229.768C230.876 61.2136 231.629 61.4341 232.116 61.831C232.648 62.272 232.958 62.9336 232.914 63.6392C232.914 64.1684 232.736 64.6977 232.426 65.1387C232.072 65.5356 231.585 65.8443 231.053 65.9325ZM229.503 64.9623H229.901C231.097 64.9623 231.673 64.5212 231.673 63.5951C231.673 62.669 231.097 62.3161 229.946 62.3161H229.503V64.9623Z" fill="#233568"/>
<path d="M239.735 67.432H236.191L235.261 69.4166H233.932L238.007 60.6844L241.949 69.4166H240.576L239.735 67.432ZM239.203 66.2853L237.963 63.5069L236.678 66.2853H239.203Z" fill="#233568"/>
<path d="M242.969 69.4166V60.6403L248.993 66.9027V61.1695H250.233V69.9017L244.209 63.6392V69.3725L242.969 69.4166Z" fill="#233568"/>
<path d="M265.028 67.432H261.485L260.554 69.4166H259.226L263.301 60.6844L267.243 69.4166H265.87L265.028 67.432ZM264.497 66.2853L263.257 63.5069L261.972 66.2853H264.497Z" fill="#233568"/>
<path d="M87.5752 82.5149V73.7386L93.5996 80.0011V74.3119H94.8399V83.0441L88.8155 76.7816V82.5149H87.5752Z" fill="#233568"/>
<path d="M96.4791 78.3693C96.4791 77.2226 96.9221 76.1642 97.7637 75.3703C98.5611 74.5765 99.6685 74.0914 100.82 74.1355C103.168 74.1355 105.117 76.076 105.117 78.4134C105.117 79.56 104.674 80.6626 103.832 81.4123C102.193 83 99.5799 83.0882 97.8523 81.5446C96.9664 80.7508 96.4348 79.6041 96.4791 78.3693ZM97.7637 78.3693C97.7194 79.2072 98.0738 80.0452 98.694 80.6185C99.89 81.8092 101.795 81.8092 102.991 80.6185C104.187 79.3836 104.187 77.4431 102.991 76.2083C102.415 75.635 101.618 75.2821 100.82 75.3262C100.023 75.3262 99.2255 75.635 98.6497 76.2083C98.0295 76.7816 97.7194 77.5754 97.7637 78.3693Z" fill="#233568"/>
<path d="M112.337 75.4585V82.5149H111.097V75.4585H109.192V74.3119H114.242V75.4585H112.337Z" fill="#233568"/>
<path d="M118.14 79.0308L120.71 82.5149H119.159L116.811 79.1631H116.59V82.5149H115.35V74.3119H116.811C117.919 74.3119 118.716 74.5324 119.159 74.9293C119.691 75.3703 120.001 76.0319 119.956 76.7375C119.956 77.2667 119.779 77.7959 119.469 78.237C119.159 78.6339 118.672 78.8985 118.14 79.0308ZM116.59 78.0606H116.989C118.185 78.0606 118.76 77.6195 118.76 76.6934C118.76 75.8555 118.185 75.4144 117.033 75.4144H116.59V78.0606Z" fill="#233568"/>
<path d="M126.778 80.5303H123.234L122.304 82.5149H120.975L125.05 73.7827L128.992 82.5149H127.619L126.778 80.5303ZM126.29 79.3395L125.05 76.5611L123.765 79.3395H126.29Z" fill="#233568"/>
<path d="M130.056 82.5149V74.3119H131.296C131.739 74.3119 132.182 74.356 132.625 74.4442C132.935 74.5324 133.201 74.6647 133.467 74.8852C133.688 75.1057 133.91 75.3703 133.998 75.6791C134.131 75.9878 134.22 76.2965 134.22 76.6493C134.22 77.2226 133.998 77.7518 133.555 78.1488C133.998 78.2811 134.352 78.5457 134.574 78.9426C135.283 80.001 134.973 81.4564 133.91 82.162C133.732 82.2502 133.555 82.3384 133.378 82.4267C132.935 82.559 132.448 82.6031 131.96 82.6031L130.056 82.5149ZM131.296 77.84H131.695C132.049 77.8842 132.403 77.7518 132.713 77.5313C132.935 77.2667 133.068 76.958 133.024 76.6052C133.068 76.2965 132.935 75.9437 132.669 75.7232C132.403 75.5026 132.049 75.4144 131.695 75.4144H131.252L131.296 77.84ZM131.296 81.3682H132.049C132.492 81.4123 132.935 81.28 133.289 81.0595C133.555 80.839 133.732 80.4862 133.688 80.1334C133.688 79.7805 133.555 79.4718 133.289 79.2513C132.891 78.9867 132.403 78.8544 131.916 78.8985H131.296V81.3682Z" fill="#233568"/>
<path d="M141.263 80.5303H137.719L136.789 82.5149H135.46L139.535 73.7827L143.478 82.5149H142.105L141.263 80.5303ZM140.776 79.3395L139.535 76.5611L138.251 79.3395H140.776Z" fill="#233568"/>
<path d="M145.781 74.3119V81.3682H148.218V82.5149H144.541V74.3119H145.781Z" fill="#233568"/>
<path d="M150.654 77.5313H154.198V74.3119H155.438V82.5149H154.198V78.678H150.654V82.5149H149.414V74.3119H150.654V77.5313Z" fill="#233568"/>
<path d="M157.033 78.3693C157.033 77.2226 157.476 76.1642 158.318 75.3703C159.115 74.5765 160.222 74.0914 161.374 74.1355C163.722 74.1355 165.671 76.076 165.671 78.4134C165.671 79.56 165.228 80.6626 164.386 81.4123C162.747 83 160.134 83.0882 158.406 81.5446C157.476 80.7508 156.989 79.6041 157.033 78.3693ZM158.273 78.3693C158.229 79.2072 158.583 80.0452 159.204 80.6185C160.4 81.8092 162.304 81.8092 163.5 80.6185C164.696 79.3836 164.696 77.4431 163.5 76.2083C162.304 75.0175 160.355 75.0175 159.159 76.2083C158.539 76.7816 158.229 77.5754 158.273 78.3693Z" fill="#233568"/>
<path d="M170.588 82.5149V74.3119H172.315C172.98 74.2678 173.644 74.356 174.265 74.5765C174.796 74.7529 175.283 75.0175 175.682 75.4144C177.365 77.0462 177.365 79.7364 175.726 81.4123C175.682 81.4564 175.638 81.5005 175.638 81.5005C175.239 81.8533 174.752 82.162 174.22 82.3385C173.6 82.5149 172.936 82.6031 172.271 82.559L170.588 82.5149ZM171.828 81.3682H172.404C172.891 81.3682 173.334 81.3241 173.777 81.1918C174.132 81.0595 174.486 80.8831 174.796 80.6185C175.416 80.0452 175.726 79.2513 175.726 78.4575C175.771 77.6195 175.416 76.8257 174.796 76.2524C174.132 75.7232 173.246 75.4585 172.404 75.5027H171.828V81.3682Z" fill="#233568"/>
<path d="M178.118 78.3693C178.118 77.2226 178.561 76.1642 179.402 75.3703C180.2 74.5765 181.307 74.0914 182.459 74.1355C184.807 74.1355 186.756 76.076 186.756 78.4134C186.756 79.56 186.313 80.6626 185.471 81.4123C183.832 83 181.219 83.0882 179.491 81.5446C178.605 80.7508 178.074 79.6041 178.118 78.3693ZM179.402 78.3693C179.358 79.2072 179.712 80.0452 180.333 80.6185C180.909 81.1918 181.662 81.5005 182.459 81.5005C183.301 81.5005 184.054 81.1918 184.674 80.6185C185.25 80.0452 185.56 79.2513 185.56 78.4134C185.56 77.5755 185.25 76.7816 184.674 76.2083C184.098 75.635 183.301 75.2821 182.503 75.3262C181.706 75.3262 180.909 75.635 180.333 76.2083C179.668 76.7816 179.358 77.5754 179.402 78.3693Z" fill="#233568"/>
<path d="M196.279 75.4586H192.957V77.4431H196.191V78.5898H192.957V81.3241H196.279V82.4708H191.717V74.2678H196.279V75.4586Z" fill="#233568"/>
<path d="M202.57 75.5026L201.551 76.1201C201.418 75.8555 201.241 75.6349 201.02 75.5026C200.798 75.3703 200.577 75.3262 200.355 75.3262C200.045 75.3262 199.735 75.4144 199.469 75.6349C199.248 75.8114 199.115 76.076 199.115 76.3406C199.115 76.7375 199.425 77.0462 200.001 77.3108L200.842 77.6636C201.418 77.8842 201.906 78.1929 202.304 78.6339C202.614 79.0308 202.792 79.56 202.747 80.0452C202.747 80.7508 202.481 81.4123 201.994 81.8974C201.507 82.3826 200.798 82.6472 200.089 82.6472C199.425 82.6913 198.805 82.4267 198.318 82.0297C197.83 81.5446 197.52 80.9272 197.432 80.2657L198.716 80.001C198.716 80.3539 198.849 80.7067 199.026 81.0154C199.514 81.6328 200.4 81.721 201.02 81.2359C201.064 81.1918 201.064 81.1918 201.108 81.1477C201.374 80.8831 201.507 80.5303 201.507 80.1775C201.507 80.0452 201.507 79.8687 201.463 79.7364C201.418 79.6041 201.33 79.4718 201.241 79.3836C201.153 79.2513 201.02 79.1631 200.887 79.0749C200.71 78.9867 200.532 78.8544 200.355 78.8103L199.558 78.4575C198.406 77.9724 197.875 77.3108 197.875 76.3847C197.875 75.7672 198.14 75.238 198.583 74.8411C199.071 74.4001 199.691 74.1796 200.355 74.2237C201.241 74.1355 202.171 74.6647 202.57 75.5026Z" fill="#233568"/>
<path d="M206.734 75.4585V82.5149H205.494V75.4585H203.589V74.3119H208.639V75.4585H206.734Z" fill="#233568"/>
<path d="M214.131 80.5303H210.587L209.657 82.5149H208.328L212.403 73.7827L216.346 82.5149H214.973L214.131 80.5303ZM213.644 79.3395L212.403 76.5611L211.119 79.3395H213.644Z" fill="#233568"/>
<path d="M217.409 82.5149V74.3119H219.137C219.801 74.2678 220.466 74.356 221.086 74.5765C221.617 74.7529 222.105 75.0175 222.503 75.4144C224.187 77.0462 224.187 79.7364 222.548 81.4123C222.503 81.4564 222.459 81.5005 222.459 81.5005C222.06 81.8533 221.573 82.162 221.042 82.3385C220.421 82.5149 219.757 82.6031 219.092 82.559L217.409 82.5149ZM218.65 81.3682H219.225C219.713 81.3682 220.156 81.3241 220.599 81.1918C220.953 81.0595 221.307 80.8831 221.617 80.6185C222.238 80.0452 222.548 79.2513 222.548 78.4575C222.592 77.6195 222.238 76.8257 221.662 76.2524C220.997 75.7232 220.111 75.4585 219.27 75.5027H218.694V81.3682H218.65Z" fill="#233568"/>
<path d="M224.94 78.3693C224.94 77.2226 225.383 76.1642 226.225 75.3703C227.022 74.5765 228.129 74.0914 229.281 74.1355C231.629 74.1355 233.578 76.076 233.578 78.4134C233.578 79.56 233.135 80.6626 232.293 81.4123C230.654 83 228.041 83.0882 226.313 81.5446C225.427 80.7508 224.896 79.6041 224.94 78.3693ZM226.18 78.3693C226.136 79.2072 226.49 80.0452 227.111 80.6185C227.686 81.1918 228.44 81.5005 229.237 81.5005C230.079 81.5446 230.876 81.1918 231.452 80.6185C232.028 80.0452 232.338 79.2513 232.338 78.4134C232.338 77.5755 232.028 76.7816 231.452 76.2083C230.876 75.635 230.078 75.2821 229.281 75.3262C228.484 75.3262 227.686 75.635 227.111 76.2083C226.49 76.7816 226.18 77.5754 226.18 78.3693Z" fill="#233568"/>
<path d="M238.539 82.5149V74.3119H240.267C240.931 74.2678 241.596 74.356 242.26 74.5765C242.792 74.7529 243.279 75.0175 243.677 75.4144C245.361 76.958 245.449 79.56 243.943 81.2359C243.5 81.721 242.88 82.1179 242.26 82.3385C241.64 82.5149 240.975 82.6031 240.311 82.559L238.539 82.5149ZM239.779 81.3682H240.355C240.842 81.3682 241.285 81.3241 241.773 81.1918C242.127 81.0595 242.481 80.8831 242.792 80.6185C243.412 80.0452 243.722 79.2513 243.722 78.4575C243.766 77.6195 243.456 76.8257 242.836 76.2524C242.171 75.7232 241.285 75.4585 240.4 75.5027H239.824L239.779 81.3682Z" fill="#233568"/>
<path d="M251.03 75.4586H247.708V77.4431H250.942V78.5898H247.708V81.3241H251.03V82.4708H246.468V74.2678H251.03V75.4586Z" fill="#233568"/>
<path d="M260.289 78.237H263.7V78.5016C263.7 79.0749 263.655 79.6041 263.478 80.1334C263.301 80.5744 263.079 81.0154 262.769 81.3682C262.016 82.2062 260.953 82.6913 259.846 82.6472C258.738 82.6472 257.631 82.2062 256.878 81.4123C255.195 79.7364 255.239 77.0021 256.966 75.3703C258.251 74.1355 260.156 73.7827 261.751 74.5324C262.371 74.8411 262.902 75.2821 263.345 75.8114L262.459 76.6493C261.928 75.8114 260.997 75.3262 259.979 75.2821C259.137 75.238 258.34 75.5909 257.764 76.1642C257.188 76.7375 256.878 77.5313 256.878 78.3693C256.878 80.0452 258.207 81.4123 259.89 81.4564C260.51 81.4564 261.086 81.2359 261.529 80.839C261.972 80.4862 262.282 79.9128 262.326 79.3395H260.244L260.289 78.237Z" fill="#233568"/>
<path d="M264.851 78.3693C264.851 77.2226 265.294 76.1642 266.136 75.3703C266.933 74.5765 268.041 74.0914 269.192 74.1355C271.54 74.1355 273.489 76.076 273.489 78.4134C273.489 79.56 273.046 80.6626 272.204 81.4123C270.565 83 267.952 83.0882 266.224 81.5446C265.338 80.7508 264.807 79.6041 264.851 78.3693ZM266.136 78.3693C266.091 79.2072 266.446 80.0452 267.066 80.6185C268.262 81.8092 270.167 81.8092 271.363 80.6185C272.559 79.3836 272.559 77.4431 271.363 76.2083C270.787 75.635 269.99 75.2821 269.192 75.3262C267.509 75.3262 266.136 76.6493 266.136 78.3693C266.091 78.3693 266.091 78.3693 266.136 78.3693Z" fill="#233568"/>
<path d="M276.324 74.3119V82.5149H275.084V74.3119H276.324Z" fill="#233568"/>
<path d="M283.146 80.5303H279.602L278.672 82.5149H277.343L281.418 73.7827L285.361 82.5149H283.987L283.146 80.5303ZM282.614 79.3395L281.374 76.5611L280.089 79.3395H282.614ZM283.323 72.0627L281.152 73.5181L280.576 73.0329L282.304 71.313L283.323 72.0627Z" fill="#233568"/>
<path d="M291.075 75.5026L290.056 76.1201C289.923 75.8555 289.746 75.6349 289.525 75.5026C289.303 75.3703 289.082 75.3262 288.816 75.3262C288.506 75.3262 288.196 75.4144 287.93 75.6349C287.708 75.8113 287.576 76.076 287.576 76.3406C287.576 76.7375 287.886 77.0462 288.461 77.3108L289.303 77.6636C289.879 77.8841 290.366 78.1929 290.765 78.6339C291.075 79.0308 291.252 79.56 291.208 80.0451C291.208 80.7508 290.942 81.4123 290.455 81.8974C289.968 82.3825 289.259 82.6472 288.55 82.6472C287.886 82.6472 287.265 82.4266 286.778 82.0297C286.291 81.5446 285.981 80.9272 285.937 80.2657L287.177 80.001C287.177 80.3539 287.31 80.7067 287.487 81.0154C287.974 81.6328 288.86 81.721 289.48 81.2359C289.525 81.1918 289.525 81.1918 289.569 81.1477C289.835 80.8831 289.968 80.5303 289.968 80.1774C289.968 80.0451 289.968 79.8687 289.879 79.7364C289.835 79.6041 289.746 79.4718 289.657 79.3836C289.569 79.2513 289.436 79.1631 289.303 79.0749C289.126 78.9867 288.949 78.8544 288.772 78.8103L287.974 78.4575C286.867 77.9723 286.291 77.3108 286.291 76.3847C286.291 75.7672 286.557 75.238 287 74.8411C287.487 74.4001 288.107 74.1796 288.772 74.2237C289.79 74.1355 290.676 74.6647 291.075 75.5026Z" fill="#233568"/>
<path d="M256.169 62.228C257.011 62.228 257.808 62.5367 258.384 63.11V61.6546C257.719 61.2577 257.011 61.0372 256.257 61.0372C254.973 60.9931 253.733 61.5664 252.935 62.5367C252.271 63.3305 251.872 64.3007 251.872 65.3592C251.872 67.3879 253.29 69.1079 255.283 69.5048C255.283 69.593 255.194 69.7253 255.194 69.9017C255.106 70.3868 255.327 70.5191 255.77 70.5191C255.947 70.475 256.08 70.6073 256.125 70.7396C256.125 70.7837 256.125 70.8279 256.125 70.8279C256.125 71.0925 255.903 71.0925 255.726 71.1366C255.372 71.1366 254.973 71.1366 254.618 71.0484C254.486 71.0043 254.264 70.9602 254.308 71.2248C254.308 71.4012 254.22 71.6217 254.53 71.6658C255.061 71.7981 255.637 71.8422 256.169 71.7981C256.745 71.6658 257.055 71.313 257.011 70.8279C256.966 70.3427 256.568 69.9458 256.08 69.9458C255.947 69.9458 255.815 69.9899 255.726 69.8576C255.726 69.7694 255.77 69.6812 255.815 69.6371C255.947 69.6371 256.036 69.6371 256.169 69.6371C256.966 69.6371 257.719 69.4166 258.428 69.0197V67.4761C258.251 67.6525 258.029 67.7848 257.852 67.9171C257.675 68.0494 257.498 68.1376 257.321 68.2258C256.966 68.3581 256.568 68.4463 256.213 68.4463C255.416 68.4463 254.618 68.1376 254.043 67.5643C253.467 66.991 253.112 66.1971 253.157 65.3592C253.157 64.5213 253.467 63.7274 254.043 63.1541C254.574 62.5367 255.372 62.1839 256.169 62.228Z" fill="#233568"/>
</g>
<defs>
<linearGradient id="paint0_linear" x1="15.0106" y1="26.1098" x2="58.6177" y2="61.7472" gradientUnits="userSpaceOnUse">
<stop stop-color="#226A98"/>
<stop offset="1" stop-color="#58B897"/>
</linearGradient>
<linearGradient id="paint1_linear" x1="32.6904" y1="4.47947" x2="76.2975" y2="40.1125" gradientUnits="userSpaceOnUse">
<stop stop-color="#226A98"/>
<stop offset="1" stop-color="#58B897"/>
</linearGradient>
<linearGradient id="paint2_linear" x1="6.433" y1="36.6094" x2="50.0401" y2="72.2424" gradientUnits="userSpaceOnUse">
<stop stop-color="#226A98"/>
<stop offset="1" stop-color="#58B897"/>
</linearGradient>
<linearGradient id="paint3_linear" x1="7.62943" y1="35.1471" x2="51.2365" y2="70.7802" gradientUnits="userSpaceOnUse">
<stop stop-color="#226A98"/>
<stop offset="1" stop-color="#58B897"/>
</linearGradient>
<linearGradient id="paint4_linear" x1="6.80466" y1="36.1556" x2="50.4117" y2="71.7887" gradientUnits="userSpaceOnUse">
<stop stop-color="#226A98"/>
<stop offset="1" stop-color="#58B897"/>
</linearGradient>
<linearGradient id="paint5_linear" x1="7.79611" y1="34.9425" x2="51.4032" y2="70.5756" gradientUnits="userSpaceOnUse">
<stop stop-color="#226A98"/>
<stop offset="1" stop-color="#58B897"/>
</linearGradient>
<linearGradient id="paint6_linear" x1="5.18306" y1="38.1406" x2="48.7901" y2="73.778" gradientUnits="userSpaceOnUse">
<stop stop-color="#226A98"/>
<stop offset="1" stop-color="#58B897"/>
</linearGradient>
<linearGradient id="paint7_linear" x1="29.6903" y1="8.15044" x2="73.2974" y2="43.7835" gradientUnits="userSpaceOnUse">
<stop stop-color="#226A98"/>
<stop offset="1" stop-color="#58B897"/>
</linearGradient>
<clipPath id="clip0">
<rect width="327" height="83" fill="white"/>
</clipPath>
</defs>
</svg>
