<svg width="21" height="21" viewBox="0 0 21 21" fill="none" xmlns="http://www.w3.org/2000/svg">
<path fill-rule="evenodd" clip-rule="evenodd" d="M13.9813 13.7794V9.83936C13.9813 8.04423 12.5203 6.58329 10.7252 6.58329C8.93007 6.58329 7.47017 8.04423 7.47017 9.83936V13.7794H13.9813ZM5.40083 13.7835V9.83937C5.40083 7.25789 7.24874 5.10269 9.69054 4.61847V4.53466C9.69054 3.96353 10.1541 3.5 10.7252 3.5C11.2963 3.5 11.7599 3.96353 11.7599 4.53466V4.61847C14.2017 5.10269 16.0506 7.25789 16.0506 9.83937V13.7835C16.6104 13.7969 17.0625 14.2512 17.0625 14.814C17.0625 15.3852 16.599 15.8487 16.0278 15.8487H15.0159H12.2772V15.9139C12.2772 16.7716 11.5829 17.4659 10.7252 17.4659C9.86747 17.4659 9.17321 16.7716 9.17321 15.9139V15.8487H6.43549H5.4236C4.85143 15.8487 4.38893 15.3852 4.38893 14.814C4.38893 14.2512 4.84005 13.7969 5.40083 13.7835V13.7835Z" fill="black"/>
<mask id="mask0" mask-type="alpha" maskUnits="userSpaceOnUse" x="4" y="3" width="14" height="15">
<path fill-rule="evenodd" clip-rule="evenodd" d="M13.9813 13.7794V9.83936C13.9813 8.04423 12.5203 6.58329 10.7252 6.58329C8.93007 6.58329 7.47017 8.04423 7.47017 9.83936V13.7794H13.9813ZM5.40083 13.7835V9.83937C5.40083 7.25789 7.24874 5.10269 9.69054 4.61847V4.53466C9.69054 3.96353 10.1541 3.5 10.7252 3.5C11.2963 3.5 11.7599 3.96353 11.7599 4.53466V4.61847C14.2017 5.10269 16.0506 7.25789 16.0506 9.83937V13.7835C16.6104 13.7969 17.0625 14.2512 17.0625 14.814C17.0625 15.3852 16.599 15.8487 16.0278 15.8487H15.0159H12.2772V15.9139C12.2772 16.7716 11.5829 17.4659 10.7252 17.4659C9.86747 17.4659 9.17321 16.7716 9.17321 15.9139V15.8487H6.43549H5.4236C4.85143 15.8487 4.38893 15.3852 4.38893 14.814C4.38893 14.2512 4.84005 13.7969 5.40083 13.7835V13.7835Z" fill="white"/>
</mask>
<g mask="url(#mask0)">
<rect width="84" height="84" transform="matrix(-1 0 0 1 68.515 -33.0062)" fill="#A6AAB1"/>
</g>
</svg>
