<svg width="512" height="512" viewBox="0 0 512 512" fill="none" xmlns="http://www.w3.org/2000/svg">
<path d="M256 0C218.446 0 187.89 30.556 187.89 68.11V88.66H223.119V68.11C223.119 49.979 237.874 35.229 256 35.229C274.131 35.229 288.887 49.978 288.887 68.11V88.66H324.116V68.11C324.116 30.556 293.555 0 256 0Z" fill="black"/>
<path d="M304.147 429.205C304.147 455.433 282.81 476.77 256.587 476.77H255.413C229.191 476.77 207.853 455.433 207.853 429.205H172.624C172.624 474.862 209.762 512 255.413 512H256.587C302.238 512 339.376 474.862 339.376 429.205H304.147Z" fill="black"/>
<path d="M483.952 422.623L433.909 344.772V244.844C433.909 145.773 354.097 65.174 256.001 65.174C157.899 65.174 78.0931 145.773 78.0931 244.844V344.772L28.0501 422.617C24.5621 428.036 24.3161 434.93 27.4041 440.584C30.4921 446.238 36.4171 449.761 42.8641 449.761H469.139C475.586 449.761 481.51 446.238 484.593 440.59C487.686 434.936 487.44 428.043 483.952 422.623ZM75.1271 414.532L110.521 359.469C112.347 356.633 113.322 353.321 113.322 349.945V244.844C113.322 165.202 177.328 100.404 256.001 100.404C334.68 100.404 398.68 165.203 398.68 244.844V349.945C398.68 353.321 399.649 356.627 401.475 359.469L436.869 414.532H75.1271Z" fill="black"/>
</svg>
