<svg width="43" height="43" viewBox="0 0 43 43" fill="none" xmlns="http://www.w3.org/2000/svg">
<path d="M28.6668 18.4004L19.7085 13.2225C19.164 12.9082 18.5465 12.7426 17.9178 12.7424C17.2891 12.7423 16.6714 12.9075 16.1268 13.2216C15.5821 13.5357 15.1297 13.9875 14.815 14.5317C14.5002 15.0759 14.3341 15.6934 14.3335 16.3221V26.6779C14.3341 27.3063 14.5 27.9235 14.8145 28.4675C15.129 29.0115 15.581 29.4633 16.1252 29.7775C16.6699 30.092 17.2878 30.2576 17.9168 30.2576C18.5458 30.2576 19.1638 30.092 19.7085 29.7775L28.6668 24.5996C29.2099 24.2846 29.6606 23.8325 29.9739 23.2885C30.2872 22.7445 30.4522 22.1278 30.4522 21.5C30.4522 20.8722 30.2872 20.2555 29.9739 19.7115C29.6606 19.1675 29.2099 18.7154 28.6668 18.4004ZM26.8752 21.5L17.9168 26.6779V16.3221L26.8752 21.5ZM21.5002 3.58334C17.9566 3.58334 14.4926 4.63414 11.5462 6.60285C8.59982 8.57156 6.3034 11.3698 4.94733 14.6436C3.59126 17.9174 3.23645 21.5199 3.92777 24.9954C4.61909 28.4709 6.32548 31.6633 8.83117 34.169C11.3369 36.6747 14.5293 38.3811 18.0048 39.0724C21.4803 39.7637 25.0827 39.4089 28.3566 38.0529C31.6304 36.6968 34.4286 34.4004 36.3973 31.454C38.366 28.5076 39.4168 25.0436 39.4168 21.5C39.4168 19.1472 38.9534 16.8173 38.053 14.6436C37.1526 12.4698 35.8329 10.4947 34.1692 8.83101C32.5054 7.1673 30.5303 5.84757 28.3566 4.94717C26.1828 4.04677 23.853 3.58334 21.5002 3.58334ZM21.5002 35.8333C18.6653 35.8333 15.8941 34.9927 13.537 33.4177C11.1799 31.8428 9.34275 29.6042 8.2579 26.9851C7.17304 24.3661 6.88919 21.4841 7.44225 18.7037C7.9953 15.9233 9.36042 13.3694 11.365 11.3648C13.3695 9.36026 15.9235 7.99514 18.7039 7.44209C21.4843 6.88903 24.3662 7.17288 26.9853 8.25774C29.6044 9.34259 31.8429 11.1797 33.4179 13.5368C34.9929 15.8939 35.8335 18.6651 35.8335 21.5C35.8335 25.3014 34.3234 28.9472 31.6354 31.6352C28.9473 34.3232 25.3016 35.8333 21.5002 35.8333Z" fill="white"/>
</svg>
