<svg width="512" height="512" viewBox="0 0 512 512" fill="none" xmlns="http://www.w3.org/2000/svg">
<path d="M466.089 139.805C440.161 165.733 398.123 165.733 372.194 139.805C346.265 113.877 346.266 71.838 372.194 45.91L326.284 0L0 326.284L45.911 372.195C71.839 346.267 113.878 346.267 139.806 372.195C165.734 398.123 165.734 440.162 139.806 466.09L185.716 512L512 185.716L466.089 139.805ZM255.519 182.946L234.221 161.648L255.434 140.435L276.732 161.733L255.519 182.946ZM298.115 225.543L276.816 204.245L298.029 183.032L319.328 204.33L298.115 225.543ZM340.711 268.14L319.413 246.841L340.626 225.628L361.924 246.927L340.711 268.14Z" fill="white"/>
</svg>
