<svg width="16" height="16" viewBox="0 0 16 16" fill="none" xmlns="http://www.w3.org/2000/svg">
<path fill-rule="evenodd" clip-rule="evenodd" d="M8.01757 8.80048L7.23586 8.23763C6.91204 8.00505 6.83936 7.55444 7.07193 7.23142C7.3045 6.9076 7.75511 6.83411 8.07813 7.06749L8.85984 7.63035C9.18366 7.86292 9.25715 8.31353 9.02377 8.63655C8.79119 8.95957 8.34058 9.03306 8.01757 8.80048M10.9667 9.14692L11.3576 9.42875L13.5274 6.415C13.7342 6.12751 13.6696 5.72616 13.3813 5.51943L12.472 4.8637C12.2588 4.71107 11.964 4.68281 11.7517 4.83624C11.3237 5.14553 10.7293 5.16249 10.2779 4.83705C9.82647 4.51161 9.65365 3.94229 9.81112 3.43919C9.88946 3.18885 9.76913 2.91832 9.55675 2.76489L8.64664 2.10997C8.35916 1.90243 7.95781 1.96784 7.75027 2.25533L5.5812 5.26909L5.97205 5.55092C6.29507 5.78349 6.36856 6.23411 6.13598 6.55712C5.90341 6.88014 5.4528 6.95363 5.12898 6.72106L4.73812 6.43922L2.47296 9.58461C2.26623 9.8729 2.33083 10.2734 2.61912 10.481L3.52842 11.1359C3.74161 11.2893 4.03637 11.3176 4.24875 11.1642C4.67675 10.8549 5.2711 10.8379 5.72252 11.1634C6.17394 11.4888 6.34675 12.0573 6.18928 12.5612C6.11095 12.8108 6.23128 13.0821 6.44366 13.2355L7.35376 13.8904C7.64125 14.0972 8.0426 14.0326 8.25014 13.7443L10.5145 10.5989L10.1236 10.3171C9.80063 10.0845 9.72714 9.63387 9.95971 9.31085C10.1923 8.98783 10.6429 8.91435 10.9667 9.14692" fill="#C1C1C1"/>
<mask id="mask0" mask-type="alpha" maskUnits="userSpaceOnUse" x="2" y="1" width="12" height="14">
<path fill-rule="evenodd" clip-rule="evenodd" d="M8.01757 8.80048L7.23586 8.23763C6.91204 8.00505 6.83936 7.55444 7.07193 7.23142C7.3045 6.9076 7.75511 6.83411 8.07813 7.06749L8.85984 7.63035C9.18366 7.86292 9.25715 8.31353 9.02377 8.63655C8.79119 8.95957 8.34058 9.03306 8.01757 8.80048M10.9667 9.14692L11.3576 9.42875L13.5274 6.415C13.7342 6.12751 13.6696 5.72616 13.3813 5.51943L12.472 4.8637C12.2588 4.71107 11.964 4.68281 11.7517 4.83624C11.3237 5.14553 10.7293 5.16249 10.2779 4.83705C9.82647 4.51161 9.65365 3.94229 9.81112 3.43919C9.88946 3.18885 9.76913 2.91832 9.55675 2.76489L8.64664 2.10997C8.35916 1.90243 7.95781 1.96784 7.75027 2.25533L5.5812 5.26909L5.97205 5.55092C6.29507 5.78349 6.36856 6.23411 6.13598 6.55712C5.90341 6.88014 5.4528 6.95363 5.12898 6.72106L4.73812 6.43922L2.47296 9.58461C2.26623 9.8729 2.33083 10.2734 2.61912 10.481L3.52842 11.1359C3.74161 11.2893 4.03637 11.3176 4.24875 11.1642C4.67675 10.8549 5.2711 10.8379 5.72252 11.1634C6.17394 11.4888 6.34675 12.0573 6.18928 12.5612C6.11095 12.8108 6.23128 13.0821 6.44366 13.2355L7.35376 13.8904C7.64125 14.0972 8.0426 14.0326 8.25014 13.7443L10.5145 10.5989L10.1236 10.3171C9.80063 10.0845 9.72714 9.63387 9.95971 9.31085C10.1923 8.98783 10.6429 8.91435 10.9667 9.14692" fill="white"/>
</mask>
<g mask="url(#mask0)">
<rect x="-40" y="-40" width="96" height="96" fill="#CACDD4"/>
</g>
</svg>
