<svg width="60" height="60" viewBox="0 0 60 60" fill="none" xmlns="http://www.w3.org/2000/svg">
<path d="M38.8389 8.93326L36.0104 6.10483C34.8389 4.93326 32.9394 4.93326 31.7678 6.10483L28.9394 8.93326" stroke="white" stroke-width="2.5"/>
<path d="M8.43359 39.3389L5.60517 36.5104C4.43359 35.3389 4.43359 33.4394 5.60517 32.2678L29.6468 8.22617" stroke="white" stroke-width="2.5"/>
<path d="M51.5669 21.6612L54.3953 24.4896C55.5669 25.6612 55.5669 27.5607 54.3953 28.7322L29.6466 53.481" stroke="white" stroke-width="2.5"/>
<path d="M21.1611 52.0668L23.9896 54.8952C25.1611 56.0668 27.0606 56.0668 28.2322 54.8952L31.0606 52.0668" stroke="white" stroke-width="2.5"/>
<path d="M38.8389 13.1759V13.1759C40.0104 12.0043 40.0104 10.1048 38.8389 8.93326L36.0104 6.10484" stroke="white" stroke-width="2.5"/>
<path d="M12.6763 39.3389V39.3389C11.5047 40.5104 9.6052 40.5104 8.43363 39.3389L5.6052 36.5104" stroke="white" stroke-width="2.5"/>
<path d="M47.3242 21.6612V21.6612C48.4958 20.4896 50.3953 20.4896 51.5669 21.6612L54.3953 24.4896" stroke="white" stroke-width="2.5"/>
<path d="M21.1611 47.8241V47.8241C19.9896 48.9957 19.9896 50.8952 21.1611 52.0667L23.9896 54.8952" stroke="white" stroke-width="2.5"/>
<path d="M47.3241 21.6612C44.981 24.0043 41.182 24.0043 38.8389 21.6612C36.4957 19.318 36.4957 15.519 38.8389 13.1759" stroke="white" stroke-width="2.5"/>
<path d="M21.1616 47.8241C23.5047 45.481 23.5047 41.682 21.1616 39.3389C18.8184 36.9957 15.0194 36.9957 12.6763 39.3389" stroke="white" stroke-width="2.5"/>
<rect x="22.7524" y="26.4341" width="9" height="2.5" rx="1.25" transform="rotate(-135 22.7524 26.4341)" fill="white"/>
<rect x="40.4302" y="44.1118" width="9" height="2.5" rx="1.25" transform="rotate(-135 40.4302 44.1118)" fill="white"/>
<rect x="31.061" y="35.0962" width="8" height="3" rx="1.5" transform="rotate(-135 31.061 35.0962)" fill="white"/>
</svg>
