<svg width="16" height="16" viewBox="0 0 16 16" fill="none" xmlns="http://www.w3.org/2000/svg">
<path fill-rule="evenodd" clip-rule="evenodd" d="M8.01757 8.80047L7.23586 8.23761C6.91204 8.00504 6.83936 7.55443 7.07193 7.23141C7.3045 6.90758 7.75511 6.8341 8.07813 7.06748L8.85984 7.63034C9.18366 7.86291 9.25715 8.31352 9.02377 8.63654C8.79119 8.95956 8.34058 9.03304 8.01757 8.80047ZM10.9667 9.14691L11.3576 9.42874L13.5274 6.41498C13.7342 6.12749 13.6696 5.72614 13.3813 5.51941L12.472 4.86369C12.2588 4.71106 11.964 4.6828 11.7517 4.83623C11.3237 5.14552 10.7293 5.16248 10.2779 4.83704C9.82647 4.5116 9.65365 3.94228 9.81112 3.43918C9.88946 3.18884 9.76913 2.91831 9.55675 2.76487L8.64664 2.10996C8.35916 1.90242 7.95781 1.96783 7.75027 2.25531L5.5812 5.26907L5.97205 5.55091C6.29507 5.78348 6.36856 6.23409 6.13598 6.55711C5.90341 6.88013 5.4528 6.95361 5.12898 6.72104L4.73812 6.43921L2.47296 9.5846C2.26623 9.87289 2.33083 10.2734 2.61912 10.481L3.52842 11.1359C3.74161 11.2893 4.03637 11.3176 4.24875 11.1642C4.67675 10.8549 5.2711 10.8379 5.72252 11.1633C6.17394 11.4888 6.34675 12.0573 6.18928 12.5612C6.11095 12.8107 6.23128 13.0821 6.44366 13.2355L7.35376 13.8904C7.64125 14.0972 8.0426 14.0326 8.25014 13.7443L10.5145 10.5989L10.1236 10.317C9.80063 10.0845 9.72714 9.63386 9.95971 9.31084C10.1923 8.98782 10.6429 8.91433 10.9667 9.14691Z" fill="#C1C1C1"/>
<mask id="mask0" mask-type="alpha" maskUnits="userSpaceOnUse" x="2" y="1" width="12" height="14">
<path fill-rule="evenodd" clip-rule="evenodd" d="M8.01757 8.80047L7.23586 8.23761C6.91204 8.00504 6.83936 7.55443 7.07193 7.23141C7.3045 6.90758 7.75511 6.8341 8.07813 7.06748L8.85984 7.63034C9.18366 7.86291 9.25715 8.31352 9.02377 8.63654C8.79119 8.95956 8.34058 9.03304 8.01757 8.80047ZM10.9667 9.14691L11.3576 9.42874L13.5274 6.41498C13.7342 6.12749 13.6696 5.72614 13.3813 5.51941L12.472 4.86369C12.2588 4.71106 11.964 4.6828 11.7517 4.83623C11.3237 5.14552 10.7293 5.16248 10.2779 4.83704C9.82647 4.5116 9.65365 3.94228 9.81112 3.43918C9.88946 3.18884 9.76913 2.91831 9.55675 2.76487L8.64664 2.10996C8.35916 1.90242 7.95781 1.96783 7.75027 2.25531L5.5812 5.26907L5.97205 5.55091C6.29507 5.78348 6.36856 6.23409 6.13598 6.55711C5.90341 6.88013 5.4528 6.95361 5.12898 6.72104L4.73812 6.43921L2.47296 9.5846C2.26623 9.87289 2.33083 10.2734 2.61912 10.481L3.52842 11.1359C3.74161 11.2893 4.03637 11.3176 4.24875 11.1642C4.67675 10.8549 5.2711 10.8379 5.72252 11.1633C6.17394 11.4888 6.34675 12.0573 6.18928 12.5612C6.11095 12.8107 6.23128 13.0821 6.44366 13.2355L7.35376 13.8904C7.64125 14.0972 8.0426 14.0326 8.25014 13.7443L10.5145 10.5989L10.1236 10.317C9.80063 10.0845 9.72714 9.63386 9.95971 9.31084C10.1923 8.98782 10.6429 8.91433 10.9667 9.14691Z" fill="white"/>
</mask>
<g mask="url(#mask0)">
<rect x="-40" y="-40" width="96" height="96" fill="#CACDD4"/>
</g>
</svg>
